<svg xmlns="http://www.w3.org/2000/svg" viewBox="0 0 1440 1820" font-family="system-ui, -apple-system, Segoe UI, sans-serif">
  <defs>
    <linearGradient id="pageBg2" x1="0" y1="0" x2="0" y2="1">
      <stop offset="0%" stop-color="#f8fafc"/>
      <stop offset="100%" stop-color="#e2e8f0"/>
    </linearGradient>
    <filter id="shadow2" x="-5%" y="-5%" width="110%" height="115%">
      <feDropShadow dx="0" dy="3" stdDeviation="6" flood-opacity="0.12"/>
    </filter>
    <marker id="arrA" viewBox="0 0 10 10" refX="9" refY="5" markerWidth="8" markerHeight="8" orient="auto-start-reverse">
      <path d="M 0 0 L 10 5 L 0 10 z" fill="#1e40af"/>
    </marker>
  </defs>

  <rect width="1440" height="1820" fill="url(#pageBg2)"/>

  <text x="720" y="44" text-anchor="middle" font-size="26" font-weight="700" fill="#0f172a">Taxpayer · Portal Core — Filing a Return</text>
  <text x="720" y="70" text-anchor="middle" font-size="14" fill="#475569">After onboarding · dashboard → documents → review → regime → submit</text>

  <!-- ═══════════════════════════════════════════════════════════════ -->
  <!-- FRAME 1 — Home (just verified, empty state) -->
  <!-- ═══════════════════════════════════════════════════════════════ -->
  <g transform="translate(40, 110)">
    <rect width="660" height="540" rx="12" fill="#ffffff" stroke="#cbd5e1" filter="url(#shadow2)"/>

    <rect width="660" height="36" rx="12" fill="#1e40af"/>
    <rect y="20" width="660" height="16" fill="#1e40af"/>
    <text x="20" y="24" font-size="13" font-weight="700" fill="#fff">① Home — first time after onboarding</text>
    <text x="640" y="24" text-anchor="end" font-size="11" fill="#bfdbfe">glimmora.tax/home</text>

    <!-- Top bar -->
    <rect x="0" y="36" width="660" height="38" fill="#f1f5f9"/>
    <text x="20" y="61" font-size="13" font-weight="700" fill="#1e3a8a">GlimmoraTax</text>
    <rect x="200" y="44" width="14" height="14" rx="3" fill="#dbeafe"/>
    <text x="218" y="58" font-size="10" fill="#1e3a8a">Taxpayer · PAN ABCDE1234F</text>
    <rect x="450" y="44" width="100" height="22" rx="11" fill="#fff" stroke="#cbd5e1"/>
    <text x="500" y="60" text-anchor="middle" font-size="11" fill="#0f172a">FY 2024-25 ▾</text>
    <text x="568" y="60" font-size="14" fill="#475569">🔒</text>
    <text x="590" y="60" font-size="14" fill="#475569">🔔</text>
    <text x="610" y="60" font-size="14" fill="#475569">👤</text>

    <!-- Welcome -->
    <text x="20" y="100" font-size="18" font-weight="700" fill="#0f172a">Welcome, Asha.</text>
    <text x="20" y="118" font-size="11" fill="#64748b">You're all verified. Ready to start your FY 2024-25 return.</text>

    <!-- Verification panel - all green -->
    <rect x="20" y="132" width="620" height="48" rx="8" fill="#f0fdf4" stroke="#86efac"/>
    <text x="38" y="148" font-size="11" font-weight="700" fill="#14532d">✓ Account fully verified</text>
    <text x="38" y="163" font-size="10" fill="#15803d">Email verified · Phone verified · All consents granted · You can submit filings.</text>
    <text x="38" y="176" font-size="9" fill="#64748b">SCHEMA · users.email_verified_at + phone_verified_at + 3× user_consents.granted</text>

    <!-- Hero card -->
    <rect x="20" y="196" width="620" height="160" rx="10" fill="#eff6ff" stroke="#bfdbfe" stroke-width="2"/>
    <text x="38" y="220" font-size="16" font-weight="700" fill="#1e3a8a">Start your FY 2024-25 return</text>
    <text x="38" y="238" font-size="11" fill="#1e3a8a">Auto-routed by date · No spreadsheets · Every rupee traces to a rule</text>

    <!-- 4-step tracker -->
    <g transform="translate(38, 260)">
      <circle cx="20" cy="20" r="14" fill="#1e40af"/>
      <text x="20" y="25" text-anchor="middle" font-size="11" font-weight="700" fill="#fff">1</text>
      <text x="20" y="56" text-anchor="middle" font-size="10" fill="#1e3a8a">Consent</text>
      <line x1="38" y1="20" x2="118" y2="20" stroke="#cbd5e1" stroke-width="2"/>

      <circle cx="138" cy="20" r="14" fill="#fff" stroke="#cbd5e1" stroke-width="2"/>
      <text x="138" y="25" text-anchor="middle" font-size="11" font-weight="700" fill="#94a3b8">2</text>
      <text x="138" y="56" text-anchor="middle" font-size="10" fill="#64748b">Upload</text>
      <line x1="156" y1="20" x2="236" y2="20" stroke="#cbd5e1" stroke-width="2"/>

      <circle cx="256" cy="20" r="14" fill="#fff" stroke="#cbd5e1" stroke-width="2"/>
      <text x="256" y="25" text-anchor="middle" font-size="11" font-weight="700" fill="#94a3b8">3</text>
      <text x="256" y="56" text-anchor="middle" font-size="10" fill="#64748b">Review</text>
      <line x1="274" y1="20" x2="354" y2="20" stroke="#cbd5e1" stroke-width="2"/>

      <circle cx="374" cy="20" r="14" fill="#fff" stroke="#cbd5e1" stroke-width="2"/>
      <text x="374" y="25" text-anchor="middle" font-size="11" font-weight="700" fill="#94a3b8">4</text>
      <text x="374" y="56" text-anchor="middle" font-size="10" fill="#64748b">Submit</text>
    </g>

    <rect x="38" y="328" width="160" height="32" rx="8" fill="#1e40af"/>
    <text x="118" y="349" text-anchor="middle" font-size="12" font-weight="700" fill="#fff">Begin filing →</text>

    <!-- What you'll need -->
    <rect x="20" y="372" width="300" height="148" rx="8" fill="#f8fafc" stroke="#e2e8f0"/>
    <text x="38" y="394" font-size="12" font-weight="700" fill="#0f172a">📋  What you'll need</text>
    <g font-size="10" fill="#475569">
      <text x="38" y="416">• Form 16 (from your employer)</text>
      <text x="38" y="434">• Form 26AS (IT Department portal)</text>
      <text x="38" y="452">• AIS / TIS (optional)</text>
      <text x="38" y="470">• Bank statements (CSV)</text>
      <text x="38" y="488">• Salary slips (optional)</text>
    </g>
    <text x="38" y="510" font-size="9" font-style="italic" fill="#1e40af">No FY needed — router auto-detects ⓘ</text>

    <!-- Trust panel -->
    <rect x="340" y="372" width="300" height="148" rx="8" fill="#eef2ff" stroke="#c7d2fe"/>
    <text x="358" y="394" font-size="12" font-weight="700" fill="#3730a3">🛡  Three-layer trust</text>
    <g font-size="10" fill="#3730a3">
      <text x="358" y="416">L1  Rules engine — decides</text>
      <text x="358" y="434">L2  AI / OCR — suggests only</text>
      <text x="358" y="452">L3  RAG — explains, read-only</text>
    </g>
    <text x="358" y="478" font-size="9" fill="#475569">Every rupee links to a section of the IT Act.</text>
    <text x="358" y="494" font-size="9" fill="#475569">Calculation traces are replayable.</text>
    <text x="358" y="510" font-size="9" fill="#475569">AI breaks → engine still computes correctly.</text>
  </g>

  <!-- arrow → -->
  <line x1="720" y1="380" x2="760" y2="380" stroke="#1e40af" stroke-width="3" marker-end="url(#arrA)"/>
  <text x="740" y="368" text-anchor="middle" font-size="10" fill="#1e40af" font-weight="600">Click</text>
  <text x="740" y="396" text-anchor="middle" font-size="10" fill="#1e40af" font-weight="600">"Begin"</text>

  <!-- ═══════════════════════════════════════════════════════════════ -->
  <!-- FRAME 2 — Documents -->
  <!-- ═══════════════════════════════════════════════════════════════ -->
  <g transform="translate(780, 110)">
    <rect width="620" height="540" rx="12" fill="#ffffff" stroke="#cbd5e1" filter="url(#shadow2)"/>

    <rect width="620" height="36" rx="12" fill="#1e40af"/>
    <rect y="20" width="620" height="16" fill="#1e40af"/>
    <text x="20" y="24" font-size="13" font-weight="700" fill="#fff">② Upload documents — auto-routed by FY</text>
    <text x="600" y="24" text-anchor="end" font-size="11" fill="#bfdbfe">/filings/fil_d4…/documents</text>

    <!-- Tabs -->
    <rect x="0" y="36" width="620" height="36" fill="#f1f5f9"/>
    <text x="20" y="59" font-size="11" font-weight="700" fill="#1e40af">Documents</text>
    <line x1="14" y1="68" x2="100" y2="68" stroke="#1e40af" stroke-width="3"/>
    <text x="120" y="59" font-size="11" fill="#64748b">Transactions</text>
    <text x="218" y="59" font-size="11" fill="#64748b">Regime</text>
    <text x="284" y="59" font-size="11" fill="#64748b">Summary</text>
    <text x="358" y="59" font-size="11" fill="#64748b">Submit</text>

    <!-- Upload zone -->
    <rect x="20" y="86" width="580" height="84" rx="10" fill="#eff6ff" stroke="#1e40af" stroke-width="2" stroke-dasharray="6,4"/>
    <text x="310" y="118" text-anchor="middle" font-size="14" font-weight="600" fill="#1e3a8a">📄  Drop PDF or CSV here, or click to browse</text>
    <text x="310" y="138" text-anchor="middle" font-size="10" fill="#475569">Max 10 MB · Type auto-detected · No FY needed — router figures it out</text>
    <text x="310" y="156" text-anchor="middle" font-size="9" fill="#64748b">POST /api/v1/documents/upload (multipart)</text>

    <!-- Documents table -->
    <text x="20" y="194" font-size="12" font-weight="700" fill="#0f172a">Uploaded (3)</text>

    <!-- Row 1: Form 16 -->
    <rect x="20" y="208" width="580" height="56" rx="6" fill="#f0fdf4" stroke="#86efac"/>
    <text x="36" y="226" font-size="11" font-weight="600" fill="#0f172a">Form16_FY2425.pdf</text>
    <rect x="36" y="232" width="50" height="18" rx="9" fill="#dcfce7" stroke="#16a34a"/>
    <text x="61" y="245" text-anchor="middle" font-size="9" font-weight="700" fill="#14532d">form16</text>
    <text x="100" y="245" font-size="10" fill="#475569">→ FY 2024-25</text>
    <text x="190" y="245" font-size="9" fill="#64748b">Reason: AY=2025-26 in PDF</text>
    <text x="380" y="245" font-size="10" fill="#16a34a">✓ routed</text>
    <text x="460" y="245" font-size="10" fill="#1e40af" text-decoration="underline">Reassign</text>
    <text x="530" y="245" font-size="10" fill="#dc2626" text-decoration="underline">Delete</text>

    <!-- Row 2: 26AS -->
    <rect x="20" y="272" width="580" height="56" rx="6" fill="#f0fdf4" stroke="#86efac"/>
    <text x="36" y="290" font-size="11" font-weight="600" fill="#0f172a">26AS_FY2425.pdf</text>
    <rect x="36" y="296" width="68" height="18" rx="9" fill="#dcfce7" stroke="#16a34a"/>
    <text x="70" y="309" text-anchor="middle" font-size="9" font-weight="700" fill="#14532d">form_26as</text>
    <text x="118" y="309" font-size="10" fill="#475569">→ FY 2024-25</text>
    <text x="208" y="309" font-size="9" fill="#64748b">Reason: header FY=2024-25</text>
    <text x="380" y="309" font-size="10" fill="#16a34a">✓ routed</text>
    <text x="460" y="309" font-size="10" fill="#1e40af" text-decoration="underline">Reassign</text>
    <text x="530" y="309" font-size="10" fill="#dc2626" text-decoration="underline">Delete</text>

    <!-- Row 3: Bank CSV split -->
    <rect x="20" y="336" width="580" height="74" rx="6" fill="#fef3c7" stroke="#fbbf24"/>
    <text x="36" y="354" font-size="11" font-weight="600" fill="#0f172a">HDFC_Jan-Dec2024.csv</text>
    <rect x="36" y="360" width="60" height="18" rx="9" fill="#fef3c7" stroke="#92400e"/>
    <text x="66" y="373" text-anchor="middle" font-size="9" font-weight="700" fill="#78350f">bank_csv</text>
    <text x="110" y="373" font-size="10" fill="#78350f">→ split across 2 FYs</text>

    <g font-size="9" fill="#78350f">
      <text x="36" y="392">  FY 2024-25:  41 transactions (Apr 1 onward)</text>
      <text x="36" y="404">  FY 2023-24:   6 transactions (rows before Mar 31)</text>
    </g>

    <text x="380" y="380" font-size="10" fill="#92400e" font-weight="600">⚠ partially_routed</text>
    <text x="460" y="380" font-size="10" fill="#1e40af" text-decoration="underline">View routing</text>
    <text x="540" y="380" font-size="10" fill="#1e40af" text-decoration="underline">Reroute</text>

    <!-- Routing report popout label -->
    <rect x="20" y="424" width="580" height="98" rx="8" fill="#f1f5f9" stroke="#cbd5e1"/>
    <text x="36" y="444" font-size="11" font-weight="700" fill="#0f172a">🧠  FY Router report</text>
    <text x="36" y="462" font-size="10" fill="#475569">Examined dates inside each document → routed each row to the right FY filing.</text>
    <text x="36" y="478" font-size="10" fill="#475569">One bank CSV produced rows in TWO filings — FY2023-24 was auto-created.</text>
    <text x="36" y="494" font-size="10" fill="#475569">No unresolved items.  router_inbox is empty.</text>
    <text x="36" y="512" font-size="9" font-style="italic" fill="#16a34a">Every routing decision audited (routing_method='auto' on each transaction)</text>
  </g>

  <!-- Arrow down to row 2 -->
  <line x1="1090" y1="660" x2="1090" y2="690" stroke="#1e40af" stroke-width="3"/>
  <line x1="1090" y1="690" x2="350" y2="690" stroke="#1e40af" stroke-width="3"/>
  <line x1="350" y1="690" x2="350" y2="720" stroke="#1e40af" stroke-width="3" marker-end="url(#arrA)"/>

  <!-- ═══════════════════════════════════════════════════════════════ -->
  <!-- FRAME 3 — Transactions review -->
  <!-- ═══════════════════════════════════════════════════════════════ -->
  <g transform="translate(40, 730)">
    <rect width="660" height="500" rx="12" fill="#ffffff" stroke="#cbd5e1" filter="url(#shadow2)"/>

    <rect width="660" height="36" rx="12" fill="#1e40af"/>
    <rect y="20" width="660" height="16" fill="#1e40af"/>
    <text x="20" y="24" font-size="13" font-weight="700" fill="#fff">③ Review &amp; verify transactions</text>
    <text x="640" y="24" text-anchor="end" font-size="11" fill="#bfdbfe">/filings/fil_d4…/transactions</text>

    <rect x="0" y="36" width="660" height="36" fill="#f1f5f9"/>
    <text x="20" y="59" font-size="11" fill="#64748b">Documents</text>
    <text x="118" y="59" font-size="11" font-weight="700" fill="#1e40af">Transactions</text>
    <line x1="112" y1="68" x2="208" y2="68" stroke="#1e40af" stroke-width="3"/>
    <text x="226" y="59" font-size="11" fill="#64748b">Regime</text>
    <text x="290" y="59" font-size="11" fill="#64748b">Summary</text>
    <text x="364" y="59" font-size="11" fill="#64748b">Submit</text>

    <!-- Progress bar -->
    <rect x="20" y="86" width="620" height="40" rx="6" fill="#eff6ff" stroke="#bfdbfe"/>
    <text x="36" y="105" font-size="11" font-weight="700" fill="#1e3a8a">Verification progress · 32 of 47 verified</text>
    <rect x="36" y="111" width="488" height="6" rx="3" fill="#dbeafe"/>
    <rect x="36" y="111" width="332" height="6" rx="3" fill="#1e40af"/>
    <text x="544" y="113" font-size="11" font-weight="700" fill="#1e3a8a">68%</text>

    <!-- Filter row -->
    <g transform="translate(20, 140)">
      <rect width="120" height="26" rx="6" fill="#1e40af"/>
      <text x="60" y="17" text-anchor="middle" font-size="10" font-weight="600" fill="#fff">Unverified (15)</text>
      <rect x="130" width="100" height="26" rx="6" fill="#fff" stroke="#cbd5e1"/>
      <text x="180" y="17" text-anchor="middle" font-size="10" fill="#475569">Verified (32)</text>
      <rect x="240" width="80" height="26" rx="6" fill="#fff" stroke="#cbd5e1"/>
      <text x="280" y="17" text-anchor="middle" font-size="10" fill="#475569">All (47)</text>
      <text x="340" y="18" font-size="10" fill="#475569">Method:</text>
      <rect x="386" width="70" height="26" rx="6" fill="#fff" stroke="#cbd5e1"/>
      <text x="421" y="17" text-anchor="middle" font-size="10" fill="#475569">All ▾</text>
      <rect x="540" width="80" height="26" rx="6" fill="#dcfce7" stroke="#16a34a"/>
      <text x="580" y="17" text-anchor="middle" font-size="10" fill="#14532d" font-weight="600">Verify all ✓</text>
    </g>

    <!-- Table header -->
    <rect x="20" y="180" width="620" height="24" fill="#f8fafc"/>
    <g font-size="9" font-weight="700" fill="#475569">
      <text x="36" y="196">Date</text>
      <text x="96" y="196">Description</text>
      <text x="290" y="196">Amount</text>
      <text x="360" y="196">Category</text>
      <text x="466" y="196">How?</text>
      <text x="530" y="196">FY</text>
      <text x="578" y="196">Action</text>
    </g>

    <!-- Row 1 -->
    <rect x="20" y="204" width="620" height="38" fill="#fff" stroke="#e2e8f0"/>
    <text x="36" y="226" font-size="10" fill="#0f172a">15 Apr 2024</text>
    <text x="96" y="226" font-size="10" fill="#0f172a">Salary credit · ACME Pvt Ltd</text>
    <text x="290" y="226" font-size="10" font-family="ui-monospace, monospace" fill="#0f172a">₹75,000.00</text>
    <text x="360" y="226" font-size="10" fill="#0f172a">salary_income</text>
    <rect x="466" y="214" width="40" height="16" rx="8" fill="#e0e7ff" stroke="#6366f1"/>
    <text x="486" y="225" text-anchor="middle" font-size="8" font-weight="700" fill="#3730a3">RULE</text>
    <text x="530" y="226" font-size="10" fill="#0f172a">FY24-25</text>
    <rect x="578" y="212" width="48" height="20" rx="4" fill="#dcfce7" stroke="#16a34a"/>
    <text x="602" y="226" text-anchor="middle" font-size="9" font-weight="700" fill="#14532d">✓ verify</text>

    <!-- Row 2 -->
    <rect x="20" y="242" width="620" height="38" fill="#fef3c7" stroke="#fbbf24"/>
    <text x="36" y="264" font-size="10" fill="#0f172a">22 May 2024</text>
    <text x="96" y="264" font-size="10" fill="#0f172a">UPI/RAZORPAY/FY-LIC-PRMM</text>
    <text x="290" y="264" font-size="10" font-family="ui-monospace, monospace" fill="#0f172a">₹12,000.00</text>
    <text x="360" y="264" font-size="10" fill="#92400e">insurance_80c ⓘ</text>
    <rect x="466" y="252" width="40" height="16" rx="8" fill="#fef3c7" stroke="#fbbf24"/>
    <text x="486" y="263" text-anchor="middle" font-size="8" font-weight="700" fill="#78350f">AI 87%</text>
    <text x="530" y="264" font-size="10" fill="#0f172a">FY24-25</text>
    <rect x="578" y="250" width="48" height="20" rx="4" fill="#dcfce7" stroke="#16a34a"/>
    <text x="602" y="264" text-anchor="middle" font-size="9" font-weight="700" fill="#14532d">✓ verify</text>

    <!-- Row 3 -->
    <rect x="20" y="280" width="620" height="38" fill="#fff" stroke="#e2e8f0"/>
    <text x="36" y="302" font-size="10" fill="#0f172a">10 Jun 2024</text>
    <text x="96" y="302" font-size="10" fill="#0f172a">SB Interest Q1 · HDFC</text>
    <text x="290" y="302" font-size="10" font-family="ui-monospace, monospace" fill="#0f172a">₹2,140.50</text>
    <text x="360" y="302" font-size="10" fill="#0f172a">interest_income</text>
    <rect x="466" y="290" width="40" height="16" rx="8" fill="#e0e7ff" stroke="#6366f1"/>
    <text x="486" y="301" text-anchor="middle" font-size="8" font-weight="700" fill="#3730a3">RULE</text>
    <text x="530" y="302" font-size="10" fill="#0f172a">FY24-25</text>
    <rect x="578" y="288" width="48" height="20" rx="4" fill="#dcfce7" stroke="#16a34a"/>
    <text x="602" y="302" text-anchor="middle" font-size="9" font-weight="700" fill="#14532d">✓ verify</text>

    <!-- Row 4 -->
    <rect x="20" y="318" width="620" height="38" fill="#fef3c7" stroke="#fbbf24"/>
    <text x="36" y="340" font-size="10" fill="#0f172a">02 Jul 2024</text>
    <text x="96" y="340" font-size="10" fill="#0f172a">RTGS · Birla Mutual Fund</text>
    <text x="290" y="340" font-size="10" font-family="ui-monospace, monospace" fill="#0f172a">₹50,000.00</text>
    <text x="360" y="340" font-size="10" fill="#92400e">elss_80c ⓘ</text>
    <rect x="466" y="328" width="40" height="16" rx="8" fill="#fef3c7" stroke="#fbbf24"/>
    <text x="486" y="339" text-anchor="middle" font-size="8" font-weight="700" fill="#78350f">AI 71%</text>
    <text x="530" y="340" font-size="10" fill="#0f172a">FY24-25</text>
    <rect x="578" y="326" width="48" height="20" rx="4" fill="#dcfce7" stroke="#16a34a"/>
    <text x="602" y="340" text-anchor="middle" font-size="9" font-weight="700" fill="#14532d">✓ verify</text>

    <!-- Legend -->
    <rect x="20" y="376" width="620" height="60" rx="6" fill="#f8fafc" stroke="#e2e8f0"/>
    <text x="36" y="394" font-size="11" font-weight="700" fill="#0f172a">How was each one categorized?</text>
    <g font-size="10">
      <rect x="36" y="408" width="40" height="16" rx="8" fill="#e0e7ff" stroke="#6366f1"/>
      <text x="56" y="419" text-anchor="middle" font-size="8" font-weight="700" fill="#3730a3">RULE</text>
      <text x="84" y="420" fill="#475569">Deterministic regex/keyword match (80%+ of rows)</text>

      <rect x="346" y="408" width="40" height="16" rx="8" fill="#fef3c7" stroke="#fbbf24"/>
      <text x="366" y="419" text-anchor="middle" font-size="8" font-weight="700" fill="#78350f">AI</text>
      <text x="394" y="420" fill="#475569">AI suggested — user must confirm</text>
    </g>

    <!-- Continue button -->
    <rect x="20" y="450" width="620" height="38" rx="8" fill="#cbd5e1"/>
    <text x="330" y="475" text-anchor="middle" font-size="13" font-weight="700" fill="#475569">Continue to Regime — disabled until 100% verified</text>
  </g>

  <!-- arrow → -->
  <line x1="720" y1="980" x2="760" y2="980" stroke="#1e40af" stroke-width="3" marker-end="url(#arrA)"/>

  <!-- ═══════════════════════════════════════════════════════════════ -->
  <!-- FRAME 4 — Regime + 115BAC modal -->
  <!-- ═══════════════════════════════════════════════════════════════ -->
  <g transform="translate(780, 730)">
    <rect width="620" height="500" rx="12" fill="#ffffff" stroke="#cbd5e1" filter="url(#shadow2)"/>

    <rect width="620" height="36" rx="12" fill="#1e40af"/>
    <rect y="20" width="620" height="16" fill="#1e40af"/>
    <text x="20" y="24" font-size="13" font-weight="700" fill="#fff">④ Choose regime · Section 115BAC check</text>
    <text x="600" y="24" text-anchor="end" font-size="11" fill="#bfdbfe">/filings/fil_d4…/regime</text>

    <!-- Side-by-side regime cards (faded — modal is on top) -->
    <g opacity="0.5">
      <rect x="20" y="60" width="280" height="180" rx="10" fill="#fff" stroke="#cbd5e1"/>
      <text x="160" y="84" text-anchor="middle" font-size="13" font-weight="700" fill="#0f172a">Old regime</text>
      <text x="40" y="116" font-size="10" fill="#64748b">Income</text>
      <text x="280" y="116" text-anchor="end" font-size="11" font-family="ui-monospace, monospace" fill="#0f172a">₹12,00,000</text>
      <text x="40" y="142" font-size="10" fill="#64748b">Deductions</text>
      <text x="280" y="142" text-anchor="end" font-size="11" font-family="ui-monospace, monospace" fill="#0f172a">₹2,50,000</text>
      <text x="40" y="168" font-size="10" fill="#64748b">Tax</text>
      <text x="280" y="168" text-anchor="end" font-size="14" font-family="ui-monospace, monospace" font-weight="700" fill="#0f172a">₹1,32,600</text>
      <rect x="40" y="190" width="240" height="32" rx="6" fill="#fff" stroke="#cbd5e1"/>
      <text x="160" y="210" text-anchor="middle" font-size="11" fill="#475569">Choose old</text>

      <rect x="320" y="60" width="280" height="180" rx="10" fill="#f0fdf4" stroke="#16a34a" stroke-width="2"/>
      <text x="460" y="84" text-anchor="middle" font-size="13" font-weight="700" fill="#14532d">New regime ★</text>
      <text x="340" y="116" font-size="10" fill="#15803d">Income</text>
      <text x="580" y="116" text-anchor="end" font-size="11" font-family="ui-monospace, monospace" fill="#0f172a">₹12,00,000</text>
      <text x="340" y="142" font-size="10" fill="#15803d">Deductions</text>
      <text x="580" y="142" text-anchor="end" font-size="11" font-family="ui-monospace, monospace" fill="#0f172a">₹75,000</text>
      <text x="340" y="168" font-size="10" fill="#15803d">Tax</text>
      <text x="580" y="168" text-anchor="end" font-size="14" font-family="ui-monospace, monospace" font-weight="700" fill="#14532d">₹1,01,400</text>
      <rect x="340" y="190" width="240" height="32" rx="6" fill="#16a34a"/>
      <text x="460" y="210" text-anchor="middle" font-size="11" font-weight="700" fill="#fff">Choose new</text>
    </g>

    <!-- 115BAC modal overlay -->
    <rect x="40" y="252" width="540" height="232" rx="12" fill="#fff" stroke="#dc2626" stroke-width="2"/>
    <rect x="40" y="252" width="540" height="40" rx="12" fill="#fef2f2"/>
    <rect x="40" y="270" width="540" height="22" fill="#fef2f2"/>
    <text x="56" y="278" font-size="13" font-weight="700" fill="#991b1b">⚠  Section 115BAC(6) — One-Time Lifetime Switch</text>

    <g font-size="11" fill="#0f172a">
      <text x="56" y="312">You filed FY 2023-24 under the OLD regime.</text>
      <text x="56" y="328">You are now requesting the NEW regime for FY 2024-25.</text>
    </g>

    <g font-size="10" fill="#475569">
      <text x="56" y="350">Because you have business/professional income, Section 115BAC(6)</text>
      <text x="56" y="364">permits this switch ONLY ONCE in your lifetime. After this filing,</text>
      <text x="56" y="378">you cannot return to the old regime as long as you have business income.</text>
    </g>

    <rect x="56" y="392" width="14" height="14" rx="2" fill="#dc2626"/>
    <path d="M 58 399 L 61 402.5 L 67 397" stroke="#fff" stroke-width="1.5" fill="none"/>
    <text x="78" y="402" font-size="10" fill="#0f172a">I have read and understood Section 115BAC(6) and confirm</text>
    <text x="78" y="416" font-size="10" fill="#0f172a">I am exercising my one-time lifetime switch back to the new regime.</text>

    <text x="56" y="438" font-size="9" font-style="italic" fill="#64748b">Source: Income Tax Act, 1961 — Section 115BAC(6) · acknowledgment_text_hash logged</text>

    <rect x="320" y="454" width="120" height="24" rx="6" fill="#fff" stroke="#cbd5e1"/>
    <text x="380" y="470" text-anchor="middle" font-size="11" fill="#475569">Cancel</text>
    <rect x="450" y="454" width="124" height="24" rx="6" fill="#dc2626"/>
    <text x="512" y="470" text-anchor="middle" font-size="11" font-weight="700" fill="#fff">I acknowledge →</text>
  </g>

  <!-- Arrow down to row 3 -->
  <line x1="1090" y1="1240" x2="1090" y2="1270" stroke="#1e40af" stroke-width="3"/>
  <line x1="1090" y1="1270" x2="350" y2="1270" stroke="#1e40af" stroke-width="3"/>
  <line x1="350" y1="1270" x2="350" y2="1300" stroke="#1e40af" stroke-width="3" marker-end="url(#arrA)"/>

  <!-- ═══════════════════════════════════════════════════════════════ -->
  <!-- FRAME 5 — Summary -->
  <!-- ═══════════════════════════════════════════════════════════════ -->
  <g transform="translate(40, 1310)">
    <rect width="660" height="480" rx="12" fill="#ffffff" stroke="#cbd5e1" filter="url(#shadow2)"/>

    <rect width="660" height="36" rx="12" fill="#1e40af"/>
    <rect y="20" width="660" height="16" fill="#1e40af"/>
    <text x="20" y="24" font-size="13" font-weight="700" fill="#fff">⑤ Tax summary — every rupee traceable</text>
    <text x="640" y="24" text-anchor="end" font-size="11" fill="#bfdbfe">/filings/fil_d4…/summary</text>

    <!-- Header -->
    <text x="20" y="64" font-size="14" font-weight="700" fill="#0f172a">FY 2024-25 · Asha Verma · ABCDE1234F</text>
    <text x="20" y="80" font-size="10" fill="#64748b">Regime: NEW (acknowledged 115BAC(6)) · Calculated: 12 May 2026 10:08</text>

    <!-- Two-column layout -->
    <rect x="20" y="96" width="310" height="160" rx="8" fill="#f8fafc" stroke="#e2e8f0"/>
    <text x="36" y="118" font-size="11" font-weight="700" fill="#0f172a">Income breakdown</text>
    <g font-size="10">
      <text x="36" y="140" fill="#475569">Salary</text>
      <text x="316" y="140" text-anchor="end" font-family="ui-monospace, monospace" fill="#0f172a">₹12,00,000</text>
      <text x="36" y="160" fill="#475569">Interest (savings)</text>
      <text x="316" y="160" text-anchor="end" font-family="ui-monospace, monospace" fill="#0f172a">₹    35,000</text>
      <text x="36" y="180" fill="#475569">Other</text>
      <text x="316" y="180" text-anchor="end" font-family="ui-monospace, monospace" fill="#0f172a">₹    15,000</text>
      <line x1="36" y1="190" x2="316" y2="190" stroke="#cbd5e1"/>
      <text x="36" y="210" font-weight="700" fill="#0f172a">Gross income</text>
      <text x="316" y="210" text-anchor="end" font-weight="700" font-family="ui-monospace, monospace" fill="#0f172a">₹12,50,000</text>
    </g>
    <text x="36" y="234" font-size="9" font-style="italic" fill="#3730a3">Source: 4 rule citations · trace replayable</text>

    <rect x="340" y="96" width="300" height="160" rx="8" fill="#f8fafc" stroke="#e2e8f0"/>
    <text x="356" y="118" font-size="11" font-weight="700" fill="#0f172a">Tax computation (new regime)</text>
    <g font-size="10">
      <text x="356" y="140" fill="#475569">Taxable income</text>
      <text x="624" y="140" text-anchor="end" font-family="ui-monospace, monospace" fill="#0f172a">₹11,75,000</text>
      <text x="356" y="160" fill="#475569">Slab tax</text>
      <text x="624" y="160" text-anchor="end" font-family="ui-monospace, monospace" fill="#0f172a">₹    97,500</text>
      <text x="356" y="180" fill="#475569">Cess (4%)</text>
      <text x="624" y="180" text-anchor="end" font-family="ui-monospace, monospace" fill="#0f172a">₹     3,900</text>
      <line x1="356" y1="190" x2="624" y2="190" stroke="#cbd5e1"/>
      <text x="356" y="210" font-weight="700" fill="#0f172a">Total tax</text>
      <text x="624" y="210" text-anchor="end" font-weight="700" font-family="ui-monospace, monospace" fill="#16a34a">₹1,01,400</text>
    </g>
    <text x="356" y="234" font-size="9" font-style="italic" fill="#3730a3">Each slab references country_rules row · Finance Act 2024</text>

    <!-- Trace expander -->
    <rect x="20" y="272" width="620" height="84" rx="6" fill="#eef2ff" stroke="#c7d2fe"/>
    <text x="36" y="292" font-size="11" font-weight="700" fill="#3730a3">▸  Calculation trace (click to expand)</text>
    <text x="36" y="310" font-size="10" fill="#475569">Step 1 · sum_income · salary · ₹12,00,000 from 12 transactions</text>
    <text x="36" y="324" font-size="10" fill="#475569">Step 2 · apply_slab · rule rul_a1… v1 · Finance Act 2024, Section 115BAC</text>
    <text x="36" y="338" font-size="10" fill="#475569">Step 3 · apply_cess · 4% · rule rul_b2… v1</text>
    <text x="36" y="352" font-size="9" font-style="italic" fill="#3730a3">→ Stored in calculation_traces · final_total = ₹1,01,400 · replayable years later</text>

    <!-- Balance -->
    <rect x="20" y="372" width="310" height="58" rx="8" fill="#f0fdf4" stroke="#86efac"/>
    <text x="36" y="392" font-size="11" font-weight="700" fill="#14532d">TDS already paid</text>
    <text x="316" y="392" text-anchor="end" font-size="13" font-weight="700" font-family="ui-monospace, monospace" fill="#14532d">₹85,000</text>
    <text x="36" y="414" font-size="11" font-weight="700" fill="#14532d">Balance payable</text>
    <text x="316" y="414" text-anchor="end" font-size="13" font-weight="700" font-family="ui-monospace, monospace" fill="#dc2626">₹16,400</text>

    <!-- Actions -->
    <rect x="340" y="372" width="146" height="58" rx="8" fill="#fff" stroke="#cbd5e1"/>
    <text x="413" y="406" text-anchor="middle" font-size="12" font-weight="600" fill="#0f172a">⬇  Download PDF</text>
    <rect x="494" y="372" width="146" height="58" rx="8" fill="#1e40af"/>
    <text x="567" y="406" text-anchor="middle" font-size="12" font-weight="700" fill="#fff">Submit →</text>

    <text x="20" y="456" font-size="9" font-style="italic" fill="#64748b">All numbers reproducible from calculation_traces · audit_logs records every recalculation</text>
  </g>

  <!-- arrow → -->
  <line x1="720" y1="1560" x2="760" y2="1560" stroke="#1e40af" stroke-width="3" marker-end="url(#arrA)"/>

  <!-- ═══════════════════════════════════════════════════════════════ -->
  <!-- FRAME 6 — Submit + OTP -->
  <!-- ═══════════════════════════════════════════════════════════════ -->
  <g transform="translate(780, 1310)">
    <rect width="620" height="480" rx="12" fill="#ffffff" stroke="#cbd5e1" filter="url(#shadow2)"/>

    <rect width="620" height="36" rx="12" fill="#1e40af"/>
    <rect y="20" width="620" height="16" fill="#1e40af"/>
    <text x="20" y="24" font-size="13" font-weight="700" fill="#fff">⑥ Submit · phone-OTP gate</text>
    <text x="600" y="24" text-anchor="end" font-size="11" fill="#bfdbfe">/filings/fil_d4…/submit</text>

    <!-- Preconditions checklist -->
    <text x="20" y="64" font-size="13" font-weight="700" fill="#0f172a">Before submission</text>
    <g font-size="11">
      <text x="36" y="88" fill="#16a34a">✓  All 47 transactions verified</text>
      <text x="36" y="108" fill="#16a34a">✓  New regime chosen · 115BAC(6) acknowledged</text>
      <text x="36" y="128" fill="#16a34a">✓  Calculation up-to-date</text>
      <text x="36" y="148" fill="#16a34a">✓  Email verified · Phone verified · All 3 consents granted</text>
    </g>

    <!-- OTP step -->
    <rect x="20" y="170" width="580" height="178" rx="10" fill="#eff6ff" stroke="#bfdbfe" stroke-width="2"/>
    <text x="310" y="194" text-anchor="middle" font-size="14" font-weight="700" fill="#1e3a8a">Enter the 6-digit code we just sent to</text>
    <text x="310" y="214" text-anchor="middle" font-size="14" font-weight="700" font-family="ui-monospace, monospace" fill="#0f172a">+91 99000-*0000</text>
    <text x="310" y="232" text-anchor="middle" font-size="10" fill="#64748b">Code expires in 9:42 · bound to filing fil_d4… (single-use)</text>

    <!-- OTP boxes -->
    <g transform="translate(106, 250)">
      <rect width="55" height="56" rx="8" fill="#fff" stroke="#1e40af" stroke-width="2"/>
      <text x="27" y="40" text-anchor="middle" font-size="24" font-weight="700" font-family="ui-monospace, monospace" fill="#0f172a">7</text>
    </g>
    <g transform="translate(176, 250)">
      <rect width="55" height="56" rx="8" fill="#fff" stroke="#1e40af" stroke-width="2"/>
      <text x="27" y="40" text-anchor="middle" font-size="24" font-weight="700" font-family="ui-monospace, monospace" fill="#0f172a">3</text>
    </g>
    <g transform="translate(246, 250)">
      <rect width="55" height="56" rx="8" fill="#fff" stroke="#1e40af" stroke-width="2"/>
      <text x="27" y="40" text-anchor="middle" font-size="24" font-weight="700" font-family="ui-monospace, monospace" fill="#0f172a">5</text>
    </g>
    <g transform="translate(316, 250)">
      <rect width="55" height="56" rx="8" fill="#fff" stroke="#1e40af" stroke-width="2"/>
      <text x="27" y="40" text-anchor="middle" font-size="24" font-weight="700" font-family="ui-monospace, monospace" fill="#0f172a">9</text>
    </g>
    <g transform="translate(386, 250)">
      <rect width="55" height="56" rx="8" fill="#fff" stroke="#1e40af" stroke-width="2"/>
      <text x="27" y="40" text-anchor="middle" font-size="24" font-weight="700" font-family="ui-monospace, monospace" fill="#0f172a">2</text>
    </g>
    <g transform="translate(456, 250)">
      <rect width="55" height="56" rx="8" fill="#fff" stroke="#1e40af" stroke-width="2"/>
      <text x="27" y="40" text-anchor="middle" font-size="24" font-weight="700" font-family="ui-monospace, monospace" fill="#0f172a">8</text>
    </g>

    <!-- Acknowledge checkbox -->
    <rect x="40" y="362" width="14" height="14" rx="2" fill="#1e40af"/>
    <path d="M 42 369.5 L 45 372 L 51 367" stroke="#fff" stroke-width="1.5" fill="none"/>
    <text x="62" y="374" font-size="11" fill="#0f172a">I confirm the information in this filing is accurate.</text>

    <!-- CTA -->
    <rect x="40" y="392" width="540" height="42" rx="8" fill="#16a34a"/>
    <text x="310" y="418" text-anchor="middle" font-size="14" font-weight="700" fill="#fff">Submit filing →</text>

    <text x="310" y="456" text-anchor="middle" font-size="9" fill="#64748b">POST /filings/fil_d4…/submit { acknowledgment, verification_id, otp }</text>
    <text x="310" y="468" text-anchor="middle" font-size="9" fill="#64748b">submit_otp_verification_id stored on tax_returns · enters officer L1 worklist</text>
  </g>
</svg>
